<svg xmlns="http://www.w3.org/2000/svg" width="140" height="28" viewBox="0 0 140 28" fill="none">
  <g clipPath="url(#clip0_136_400)">
    <path d="M51.4115 8.65236L50.2156 14.7439C50.1412 15.1245 49.6032 15.133 49.5117 14.7582L48.0467 8.63805C48.0067 8.47496 47.8636 8.36337 47.6977 8.36337H44.619C44.453 8.36337 44.3071 8.47782 44.2699 8.64091L42.8221 14.7868C42.7334 15.1645 42.1927 15.1531 42.1183 14.7754L40.908 8.65522C40.8736 8.48641 40.7277 8.36623 40.556 8.36623H37.8751C37.6376 8.36623 37.4659 8.59227 37.5289 8.82117L40.3958 19.3448C40.4387 19.5021 40.5818 19.6109 40.742 19.6109H43.9752C44.1412 19.6109 44.2842 19.4993 44.3243 19.3391L45.7349 13.7282C45.8264 13.3648 46.3443 13.3648 46.433 13.7282L47.7978 19.3333C47.8379 19.4936 47.9809 19.608 48.1469 19.608H51.3972C51.5603 19.608 51.7034 19.4993 51.7434 19.3419L54.5904 8.81831C54.6533 8.58941 54.4788 8.36337 54.2442 8.36337H51.7663C51.5947 8.36337 51.4459 8.48641 51.4144 8.65522L51.4115 8.65236Z" fill="#2B2D42"/>
    <path d="M55.4172 8.68097V19.2904C55.4172 19.4649 55.5603 19.608 55.7348 19.608H58.5446C58.7191 19.608 58.8622 19.4649 58.8622 19.2904V8.68097C58.8622 8.50643 58.7191 8.36337 58.5446 8.36337H55.7348C55.5603 8.36337 55.4172 8.50643 55.4172 8.68097Z" fill="#2B2D42"/>
    <path d="M69.958 9.52216C69.1712 8.66952 68.1211 8.24319 66.8021 8.24319C66.061 8.24319 65.4001 8.38626 64.8078 8.67524C64.473 8.83833 64.1783 9.03576 63.9208 9.26752C63.7205 9.44777 63.4001 9.29327 63.4001 9.02431V8.78397C63.4001 8.55221 63.2112 8.36337 62.9795 8.36337H60.2699C60.0953 8.36337 59.9523 8.50643 59.9523 8.68096V19.2904C59.9523 19.4649 60.0953 19.608 60.2699 19.608H63.0825C63.257 19.608 63.4001 19.4649 63.4001 19.2904V13.5021C63.4001 12.7496 63.5946 12.1659 63.9809 11.7482C64.3729 11.3333 64.8965 11.1245 65.5517 11.1245C66.2069 11.1245 66.7362 11.3333 67.1225 11.7482C67.5145 12.1659 67.7062 12.7496 67.7062 13.5021V19.2904C67.7062 19.4649 67.8493 19.608 68.0238 19.608H70.8164C70.9909 19.608 71.134 19.4649 71.134 19.2904V13.0415C71.134 11.5508 70.7391 10.3777 69.9551 9.52503L69.958 9.52216Z" fill="#2B2D42"/>
    <path d="M77.5632 16.6867C77.1884 16.6867 76.9194 16.6123 76.7592 16.4635C76.599 16.3176 76.5189 16.0744 76.5189 15.7396V11.545C76.5189 11.3705 76.6619 11.2274 76.8365 11.2274H78.4559C78.6305 11.2274 78.7735 11.0844 78.7735 10.9098V8.68095C78.7735 8.50641 78.6305 8.36335 78.4559 8.36335H76.8365C76.6619 8.36335 76.5189 8.22029 76.5189 8.04575V5.94275C76.5189 5.76821 76.3758 5.62515 76.2013 5.62515H73.3887C73.2142 5.62515 73.0711 5.76821 73.0711 5.94275V8.04575C73.0711 8.22029 72.928 8.36335 72.7535 8.36335H72.0182C71.8436 8.36335 71.7006 8.50641 71.7006 8.68095V10.9098C71.7006 11.0844 71.8436 11.2274 72.0182 11.2274H72.7535C72.928 11.2274 73.0711 11.3705 73.0711 11.545V15.7024C73.0711 17.0872 73.4202 18.0829 74.1212 18.6953C74.8193 19.3076 75.7921 19.6108 77.0425 19.6108H78.4788C78.6533 19.6108 78.7964 19.4678 78.7964 19.2933V17.0071C78.7964 16.8326 78.6533 16.6895 78.4788 16.6895H77.5661L77.5632 16.6867Z" fill="#2B2D42"/>
    <path d="M90.702 13.8054C90.702 12.6752 90.4645 11.6881 89.9867 10.8412C89.5089 9.99711 88.8479 9.34475 88.001 8.88695C87.1569 8.43202 86.187 8.20026 85.1026 8.20026C84.0182 8.20026 82.9996 8.43488 82.1383 8.90698C81.28 9.37908 80.6104 10.0486 80.1355 10.9241C79.6576 11.794 79.4202 12.8183 79.4202 13.9828C79.4202 15.1473 79.6605 16.1745 80.1469 17.0472C80.6305 17.9199 81.3 18.5922 82.1612 19.0643C83.0225 19.5365 84.001 19.7682 85.1054 19.7682C86.0182 19.7682 86.8451 19.6023 87.5804 19.2646C88.3215 18.9299 88.9338 18.4692 89.4259 17.8741C89.8207 17.3991 90.1154 16.8755 90.3157 16.3033C90.3873 16.0973 90.2356 15.8769 90.0153 15.8769H86.971C86.8508 15.8769 86.7478 15.9456 86.6877 16.0486C86.3415 16.6609 85.7721 16.9642 84.9824 16.9642C84.4044 16.9642 83.918 16.7782 83.5203 16.412C83.197 16.1116 82.991 15.7024 82.8937 15.1845C82.8565 14.99 83.0081 14.8068 83.2084 14.8068H90.3558C90.5189 14.8068 90.6591 14.6838 90.6734 14.5207C90.6963 14.2746 90.7049 14.0343 90.7049 13.8025L90.702 13.8054ZM83.2571 12.8984C83.0482 12.8984 82.8908 12.6981 82.9481 12.4978C83.074 12.0686 83.2885 11.7253 83.5947 11.4649C83.9924 11.1273 84.4788 10.9613 85.0568 10.9613C85.6348 10.9613 86.167 11.1359 86.5675 11.4849C86.8851 11.7596 87.0768 12.1087 87.1426 12.535C87.1712 12.7239 87.0196 12.8955 86.825 12.8955H83.2542L83.2571 12.8984Z" fill="#2B2D42"/>
    <path d="M96.4645 8.77823C96.1097 8.9871 95.7892 9.24175 95.5031 9.53932C95.3028 9.74819 94.9509 9.61657 94.9509 9.32759V8.68095C94.9509 8.50641 94.8078 8.36335 94.6333 8.36335H91.8236C91.649 8.36335 91.506 8.50641 91.506 8.68095V19.2904C91.506 19.4649 91.649 19.608 91.8236 19.608H94.6333C94.8078 19.608 94.9509 19.4649 94.9509 19.2904V14.392C94.9509 13.4649 95.1655 12.8154 95.5947 12.4463C96.0239 12.0772 96.6705 11.8912 97.5317 11.8912H98.1612C98.3357 11.8912 98.4788 11.7482 98.4788 11.5737V8.57508C98.4788 8.38624 98.3157 8.24318 98.1269 8.25749C97.526 8.30613 96.9709 8.48066 96.4645 8.77823Z" fill="#2B2D42"/>
    <path d="M108.038 14.4807C107.64 14.0171 107.183 13.6824 106.656 13.4735C106.135 13.2646 105.454 13.0529 104.622 12.8383C103.898 12.6781 103.363 12.515 103.019 12.3548C102.676 12.1945 102.507 11.9513 102.507 11.6309C102.507 11.3619 102.616 11.1502 102.831 10.9957C103.045 10.8412 103.351 10.7639 103.755 10.7639C104.484 10.7639 104.991 11.0415 105.288 11.5765C105.306 11.6109 105.317 11.648 105.323 11.6852C105.363 11.8884 105.535 12.0343 105.735 12.0343H108.221C108.421 12.0343 108.57 11.8483 108.533 11.6509C108.356 10.6724 107.909 9.87408 107.185 9.2532C106.373 8.55506 105.263 8.20312 103.852 8.20312C102.896 8.20312 102.078 8.35763 101.386 8.66951C100.693 8.97852 100.17 9.39626 99.8149 9.92845C99.4573 10.4606 99.2799 11.0472 99.2799 11.691C99.2799 12.4578 99.4744 13.0672 99.8636 13.5164C100.253 13.9656 100.716 14.2947 101.254 14.5036C101.792 14.7124 102.462 14.9098 103.268 15.0958C104.024 15.2847 104.565 15.4563 104.899 15.608C105.237 15.7625 105.403 16.0028 105.403 16.3233C105.403 16.5923 105.286 16.8097 105.051 16.9785C104.816 17.1445 104.484 17.2303 104.055 17.2303C103.583 17.2303 103.188 17.1101 102.865 16.8669C102.61 16.6752 102.442 16.4377 102.364 16.1545C102.327 16.0171 102.204 15.9227 102.061 15.9227H99.277C99.0796 15.9227 98.9279 16.103 98.9623 16.2975C99.0624 16.8755 99.2942 17.4048 99.6604 17.8884C100.104 18.4721 100.708 18.9327 101.474 19.2675C102.241 19.6051 103.111 19.7711 104.092 19.7711C105.008 19.7711 105.809 19.6252 106.502 19.3305C107.194 19.0357 107.72 18.6266 108.092 18.1116C108.462 17.5965 108.648 17.0071 108.648 16.349C108.636 15.5708 108.43 14.947 108.032 14.4835L108.038 14.4807Z" fill="#2B2D42"/>
    <path d="M117.5 8.68094V9.06721C117.5 9.34475 117.168 9.49067 116.971 9.29897C116.728 9.06721 116.444 8.8612 116.121 8.68667C115.526 8.36049 114.831 8.20026 114.035 8.20026C113.108 8.20026 112.27 8.43488 111.514 8.90698C110.762 9.37908 110.17 10.0486 109.732 10.9241C109.297 11.794 109.08 12.8097 109.08 13.9656C109.08 15.1216 109.297 16.1373 109.732 17.0157C110.17 17.897 110.765 18.5751 111.514 19.05C112.27 19.5279 113.102 19.7653 114.015 19.7653C114.808 19.7653 115.503 19.6051 116.101 19.2818C116.433 19.1044 116.722 18.8955 116.974 18.6552C117.171 18.4635 117.503 18.6151 117.503 18.8898V19.2875C117.503 19.4621 117.646 19.6051 117.821 19.6051H120.63C120.805 19.6051 120.948 19.4621 120.948 19.2875V8.68094C120.948 8.50641 120.805 8.36335 120.63 8.36335H117.821C117.646 8.36335 117.503 8.50641 117.503 8.68094H117.5ZM116.785 16.0229C116.307 16.5179 115.726 16.7696 115.042 16.7696C114.359 16.7696 113.775 16.515 113.297 16.0114C112.819 15.5078 112.582 14.8269 112.582 13.9685C112.582 13.1101 112.819 12.432 113.297 11.9427C113.775 11.4506 114.356 11.2074 115.042 11.2074C115.729 11.2074 116.307 11.4563 116.785 11.9542C117.263 12.452 117.5 13.1302 117.5 13.9885C117.5 14.8469 117.263 15.5279 116.785 16.0257V16.0229Z" fill="#2B2D42"/>
    <path d="M126.224 8.36336V8.26608C126.224 7.67666 126.359 7.26465 126.628 7.03861C126.851 6.84691 127.211 6.75249 127.703 6.74676C127.875 6.74676 128.018 6.6037 128.018 6.43203V4.13446C128.018 3.95993 127.881 3.81973 127.706 3.81686C127.632 3.81686 127.546 3.81686 127.454 3.81686C125.924 3.81686 124.762 4.17452 123.967 4.89269C123.177 5.61086 122.779 6.66379 122.779 8.04576V8.36908H121.846C121.672 8.36908 121.529 8.51214 121.529 8.68668V10.9156C121.529 11.0901 121.672 11.2332 121.846 11.2332H122.462C122.636 11.2332 122.779 11.3762 122.779 11.5508V19.2961C122.779 19.4707 122.922 19.6137 123.097 19.6137H125.906C126.081 19.6137 126.224 19.4707 126.224 19.2961V11.5508C126.224 11.3762 126.367 11.2332 126.542 11.2332H127.763C127.938 11.2332 128.081 11.0901 128.081 10.9156V8.68668C128.081 8.51214 127.938 8.36908 127.763 8.36908H126.227L126.224 8.36336Z" fill="#2B2D42"/>
    <path d="M139.28 13.8054C139.28 12.6752 139.042 11.6881 138.565 10.8412C138.087 9.99711 137.426 9.34475 136.582 8.88695C135.735 8.43202 134.768 8.20026 133.68 8.20026C132.593 8.20026 131.577 8.43488 130.719 8.90698C129.858 9.37908 129.188 10.0486 128.71 10.9241C128.233 11.794 127.998 12.8183 127.998 13.9828C127.998 15.1473 128.238 16.1745 128.722 17.0472C129.205 17.9199 129.875 18.5922 130.736 19.0643C131.597 19.5365 132.576 19.7682 133.68 19.7682C134.593 19.7682 135.42 19.6023 136.158 19.2646C136.894 18.9299 137.509 18.4692 138.001 17.8741C138.396 17.3991 138.69 16.8755 138.891 16.3033C138.962 16.0973 138.811 15.8769 138.59 15.8769H135.546C135.426 15.8769 135.323 15.9456 135.263 16.0486C134.917 16.6609 134.347 16.9642 133.557 16.9642C132.979 16.9642 132.493 16.7782 132.095 16.412C131.772 16.1116 131.566 15.7024 131.469 15.1845C131.432 14.99 131.583 14.8068 131.783 14.8068H138.931C139.094 14.8068 139.234 14.6809 139.248 14.5179C139.268 14.2718 139.28 14.0343 139.28 13.7997V13.8054ZM131.835 12.8984C131.626 12.8984 131.469 12.6981 131.526 12.4978C131.652 12.0686 131.866 11.7253 132.173 11.4649C132.57 11.1273 133.06 10.9613 133.635 10.9613C134.241 10.9613 134.745 11.1359 135.145 11.4849C135.463 11.7596 135.655 12.1087 135.723 12.5322C135.755 12.721 135.6 12.8955 135.406 12.8955H131.832L131.835 12.8984Z" fill="#2B2D42"/>
    <path d="M55.2027 6.04005C55.1884 6.01144 55.1741 5.9771 55.1684 5.94563C54.9853 5.13304 55.1512 4.48354 55.672 4.00285C56.0554 3.64806 56.5475 3.4678 57.1541 3.4678C57.7607 3.4678 58.2328 3.6452 58.6162 4.00285C59.1369 4.48926 59.3029 5.14162 59.114 5.9628C59.1054 5.99713 59.094 6.03147 59.0768 6.06008C58.6562 6.8183 58.0153 7.19599 57.1541 7.19599C56.2928 7.19599 55.6147 6.81258 55.2056 6.04005H55.2027Z" fill="#2B2D42"/>
    <path d="M24.9823 12.8498C23.8664 12.824 22.7477 12.8498 21.6375 12.7611C20.7477 12.6895 19.8865 12.4378 19.0481 12.1001C17.5975 11.5164 16.3672 10.6295 15.3514 9.46494C14.8707 8.91559 14.4816 8.28039 14.0925 7.6595C13.6318 6.92131 13.2169 6.15736 12.782 5.40485C12.3843 4.71244 11.9466 4.04005 11.5946 3.32474C11.0682 2.25464 11.4659 1.05006 12.3843 0.409147C12.9823 -0.00859289 13.6433 -0.0772624 14.3185 0.0801053C14.8765 0.208861 15.3428 0.535041 15.6433 1.03289C16.1325 1.84262 16.5875 2.67524 17.0682 3.49069C17.5717 4.34906 18.0639 5.21315 18.6046 6.04577C19.0252 6.69527 19.6261 7.16451 20.3042 7.53933C21.154 8.00857 22.061 8.16594 23.0252 8.1545C24.6046 8.13447 26.184 8.14305 27.7663 8.1545C28.5531 8.16022 29.2341 8.44062 29.7091 9.08154C30.1812 9.71959 30.3357 10.4177 30.0839 11.2103C29.7749 12.1774 28.7963 12.8584 27.792 12.8355C26.8564 12.8126 25.9208 12.8297 24.9852 12.8297C24.9852 12.8383 24.9852 12.8441 24.9852 12.8526L24.9823 12.8498Z" fill="red"/>
    <path d="M24.9738 15.1731C25.9237 15.1731 26.8765 15.1759 27.8264 15.1731C28.8164 15.1674 29.5317 15.6423 29.9638 16.495C30.3272 17.2074 30.2871 17.9399 29.878 18.6523C29.403 19.4821 28.6591 19.8312 27.7492 19.8455C26.1469 19.8684 24.5418 19.8569 22.9395 19.8512C22.2814 19.8512 21.6347 19.9027 21.0167 20.1345C20.1641 20.4521 19.3944 20.9213 18.8479 21.6538C18.3958 22.2575 18.021 22.9242 17.6262 23.5737C17.3372 24.0486 17.0682 24.535 16.7907 25.0157C16.4845 25.5422 16.1584 26.0601 15.8751 26.6008C15.3114 27.6795 14.2957 28.206 13.1197 27.937C12.5646 27.8083 12.104 27.4764 11.7835 26.9957C11.4945 26.5608 11.3458 26.0801 11.3715 25.5508C11.3944 25.0815 11.5918 24.6724 11.8179 24.2775C12.1784 23.6538 12.5446 23.0329 12.908 22.412C13.2857 21.7625 13.6519 21.1044 14.041 20.4635C14.3701 19.9227 14.6991 19.3791 15.0825 18.8755C15.7292 18.0286 16.5275 17.3362 17.4202 16.7496C18.1469 16.2718 18.9223 15.8855 19.7463 15.648C20.5017 15.4306 21.2914 15.2761 22.0782 15.216C23.0396 15.1445 24.0096 15.1988 24.9767 15.1988C24.9767 15.1931 24.9767 15.1874 24.9767 15.1817L24.9738 15.1731Z" fill="red"/>
    <path d="M13.5174 14.0172C13.566 15.0501 13.3715 16.0372 13.071 16.9986C12.8192 17.8083 12.4387 18.5636 11.9981 19.2904C11.6232 19.9056 11.2828 20.5408 10.9222 21.1645C10.4644 21.9571 10.0438 22.7754 9.52883 23.5307C9.01095 24.2947 8.22411 24.5522 7.30279 24.4692C6.48448 24.3948 5.57747 23.5851 5.38577 22.7611C5.21695 22.0343 5.37718 21.4192 5.73198 20.8097C6.1068 20.1659 6.47017 19.5193 6.84213 18.8755C7.12826 18.3805 7.4201 17.8913 7.70909 17.3963C8.24986 16.4664 8.78205 15.5336 8.83069 14.4149C8.87647 13.4163 8.74771 12.4578 8.247 11.5765C7.5975 10.4349 6.93655 9.29612 6.28133 8.15735C6.02382 7.70814 5.74628 7.27037 5.52597 6.80399C5.30851 6.34333 5.23126 5.85406 5.36288 5.33618C5.55458 4.57795 5.98376 4.02288 6.69621 3.70528C7.30565 3.43346 7.93512 3.44777 8.55315 3.68239C9.24557 3.94562 9.60894 4.53504 9.94943 5.14448C10.3157 5.7997 10.7019 6.44634 11.0739 7.0987C11.4974 7.83976 11.9122 8.58368 12.3443 9.32187C12.762 10.04 13.051 10.8097 13.2456 11.608C13.4401 12.4006 13.5746 13.2103 13.5145 14.02L13.5174 14.0172Z" fill="red"/>
    <path d="M22.7906 0.0286042C24.3872 0.0200205 25.6805 1.30185 25.6976 2.8927C25.7148 4.4492 24.4101 5.79971 22.8021 5.79684C21.2513 5.79684 19.8922 4.5236 19.9008 2.89556C19.9094 1.32474 21.2513 -0.00573058 22.7906 0.0286042Z" fill="red"/>
    <path d="M0.719117 13.9771C0.710533 12.372 2.0267 11.0959 3.59465 11.0959C5.15116 11.0959 6.48736 12.3147 6.49022 14.0258C6.49308 15.5708 5.21411 16.9099 3.58607 16.8898C2.0267 16.867 0.693366 15.6195 0.719117 13.9771Z" fill="red"/>
    <path d="M22.7906 27.9685C21.2313 27.9857 19.8722 26.6667 19.9208 25.0043C19.9637 23.442 21.237 22.206 22.8078 22.2003C24.4559 22.1946 25.712 23.5908 25.6976 25.1044C25.6862 26.7039 24.3099 28.0114 22.7878 27.9685H22.7906Z" fill="red"/>
  </g>
  <defs>
    <clipPath id="clip0_136_400">
      <rect width="138.561" height="28" fill="white" transform="translate(0.719116)"/>
    </clipPath>
  </defs>
</svg>
