<?xml version="1.0" encoding="UTF-8"?>
<svg id="Layer_1" data-name="Layer 1" xmlns="http://www.w3.org/2000/svg" viewBox="0 0 659.28 360.92">
  <defs>
    <style>
      .cls-1 {
        fill: #2b2d42;
      }

      .cls-1, .cls-2 {
        strokeWidth: 0px;
      }

      .cls-2 {
        fill: #ef233c;
      }
    </style>
  </defs>
  <path className="cls-2" d="m135.44,161.04l-.08-.34c-.09-.39-.2-.84-.39-1.27l-.24-.54c-.46-1.06-.94-2.16-1.5-3.23-.82-1.56-1.93-3.04-3.39-4.52-1.82-1.84-3.84-3.27-6.18-4.37-.73-.34-1.41-.62-2.09-.86-1.43-.51-2.93-.86-4.46-1.06-.24-.03-.47-.04-.7-.06-.26-.02-.52-.03-.73-.07-.64-.1-1.28-.15-1.93-.15-1.95,0-3.81.44-5.4.85-1.3.33-2.51.9-3.68,1.45l-.64.3c-1.57.73-3.05,1.77-4.52,3.18-1.53,1.46-3.03,2.98-4.49,4.45l-.64.65c-1.91,1.9-3.82,3.81-5.72,5.72-1.27,1.27-2.54,2.55-3.81,3.82-1.45,1.46-2.91,2.92-4.36,4.37-1.34,1.34-2.68,2.68-4.01,4.03l-.88-.89c-.82-.83-1.64-1.65-2.47-2.47-1.15-1.14-2.29-2.27-3.42-3.41-1.14-1.14-2.28-2.27-3.43-3.41-.47-.48-.95-.96-1.43-1.44l-.71-.71c-1.32-1.31-2.64-2.63-3.96-3.96l-1.98-1.99c-.48-.48-.97-.97-1.46-1.45-.49-.49-.98-.97-1.47-1.47-.89-.88-1.65-1.62-2.02-2.65-.52-1.49-.13-3,1.04-4.05.71-.64,1.57-.98,2.47-.98s1.82.36,2.51,1.01c1.11,1.03,2.2,2.13,3.25,3.19.42.42.83.84,1.25,1.26l5.76,5.76c.95.95,1.9,1.89,2.85,2.83.95.94,1.9,1.88,2.84,2.83.16.18.61.65,1.29.65.06,0,.12,0,.18-.01h.38l.35-.34c.67-.68,1.34-1.35,2.01-2.03.68-.68,1.35-1.36,2.03-2.04,1.59-1.59,3.18-3.19,4.78-4.78,1.58-1.59,3.17-3.17,4.75-4.76l1.17-1.17c1.33-1.33,2.7-2.71,4.08-4.03,1.16-1.12,2.47-2.02,3.88-2.68l.52-.24c1.07-.51,2.19-1.03,3.29-1.3,1.47-.38,3.16-.78,4.84-.78.53,0,1.04.04,1.53.12.38.07.75.09,1.12.11.16,0,.32.02.47.03.91.12,1.8.29,2.63.52l3.37.94-2.18-2.74c-2.9-3.65-7.07-6.79-9.68-8.01-1.31-.6-2.73-1.21-4.23-1.62-1.72-.46-3.57-.7-5.49-.7-.36,0-.71,0-1.07.02-2.21.09-4.12.43-5.84,1.05-1.42.49-2.84,1.21-3.97,1.78-1.42.71-2.78,1.71-4.17,3.06-1.3,1.28-2.58,2.56-3.86,3.84l-.87.87c-.24-.24-.47-.47-.71-.71-.87-.86-1.76-1.74-2.61-2.63-1.25-1.27-2.93-2.88-4.98-4.13-1.66-1.01-3.44-1.79-5.29-2.34-1.94-.57-4.03-.87-6.22-.87h-.37c-2.95.06-5.9.77-8.78,2.1-1.95.92-3.62,2-5.12,3.33-2.25,2-4.04,4.37-5.31,7.05-.8,1.68-1.38,3.43-1.71,5.21-.27,1.52-.33,3.04-.39,4.52v.3c-.03.83.07,1.72.27,2.66l.02.09c.28,1.3.58,2.65,1.01,3.95.35,1.07.85,2.08,1.35,3,.47.87,1.06,1.95,1.84,2.86,1.25,1.46,2.61,2.86,3.93,4.21,1.56,1.6,3.16,3.19,4.75,4.78l1.19,1.19c1.98,1.97,3.96,3.93,5.93,5.91,2,1.99,4,3.98,5.99,5.98,1.21,1.22,2.43,2.45,3.64,3.67,1.22,1.23,2.44,2.46,3.66,3.69.37.37.74.72,1.11,1.08.36.34.72.68,1.07,1.03,1.52,1.54,3.05,3.09,4.57,4.66.41.43.84.52,1.13.52.41,0,.8-.18,1.15-.53.58-.59,1.16-1.17,1.73-1.75.57-.58,1.15-1.16,1.72-1.74l4.83-4.79,1.38-1.37c2.89-2.88,5.77-5.75,8.64-8.63,1.44-1.44,2.89-2.89,4.34-4.33,1.46-1.46,2.93-2.92,4.39-4.38,1-.99,1.99-1.98,2.98-2.98,1.32-1.32,2.64-2.65,3.97-3.96.79-.79,1.62-1.17,2.54-1.17.48,0,1,.11,1.53.32,1.38.53,2.15,1.53,2.34,3.07.15,1.14-.22,2.18-1.1,3.09-.99,1.02-2.01,2.03-3.03,3.03-2.61,2.62-5.23,5.26-7.84,7.87-1.1,1.1-2.2,2.19-3.3,3.28-1.1,1.09-2.2,2.18-3.3,3.28-.96.96-1.91,1.93-2.87,2.9-1.44,1.45-2.87,2.91-4.32,4.35l-3.79,3.79c-2.54,2.54-5.08,5.07-7.62,7.62l-1.59,1.59c-.93.92-1.86,1.85-2.78,2.78-1.2-1.2-2.4-2.39-3.6-3.59-1.36-1.35-2.71-2.71-4.07-4.06-1.45-1.45-2.9-2.91-4.35-4.36-1.45-1.46-2.9-2.91-4.35-4.36-1.07-1.08-2.16-2.16-3.24-3.24-1.07-1.07-2.15-2.14-3.22-3.22-1.92-1.91-3.82-3.79-5.7-5.69-1.72-1.72-3.43-3.44-5.14-5.15-1.71-1.72-3.42-3.43-5.14-5.15-1.76-1.76-3.58-3.58-5.06-5.61-1.17-1.63-2.16-3.4-3.02-5.42-.64-1.51-1.1-2.9-1.4-4.24-.27-1.2-.43-2.49-.59-3.73-.07-.53-.13-1.05-.21-1.57-.03-.21-.06-.38-.11-.67l-.33-2.19-1.59,1.54c-.23.22-.44.44-.65.64-.3.3-.58.58-.88.86-1.77,1.64-3.24,3.53-4.35,5.6-1.43,2.65-2.26,5.38-2.49,8.13-.22,2.96-.07,5.36.48,7.58.55,2.12,1.2,3.76,2.05,5.18.66,1.1,1.46,2.38,2.42,3.51.81.97,1.72,1.87,2.6,2.74.3.3.61.6.9.9l1.97,1.97c1.31,1.31,2.63,2.62,3.94,3.95,1.17,1.17,2.34,2.34,3.51,3.52,1.18,1.18,2.35,2.36,3.53,3.54.82.82,1.64,1.63,2.46,2.45.82.82,1.64,1.63,2.46,2.45,1.16,1.15,2.31,2.31,3.45,3.47l1.14,1.15,1.46,1.44,2.91,2.88,5.44,5.48c.64.64,1.28,1.28,1.93,1.91.64.63,1.27,1.26,1.91,1.89,1.22,1.22,2.43,2.44,3.65,3.66,1.22,1.22,2.44,2.45,3.66,3.66l2.14,2.13c1.43,1.42,2.85,2.85,4.27,4.28.36.36.76.55,1.19.55s.83-.18,1.19-.54c1.07-1.08,2.15-2.15,3.23-3.21,1.61-1.61,3.19-3.2,4.77-4.78,1.58-1.58,3.16-3.17,4.74-4.76,1.4-1.4,2.81-2.8,4.21-4.21,1.4-1.4,2.8-2.79,4.19-4.19.94-.94,1.89-1.89,2.83-2.84.95-.95,1.9-1.91,2.86-2.86,1.92-1.92,3.84-3.82,5.76-5.73,1.03-1.03,2.06-2.06,3.08-3.09,1.03-1.03,2.05-2.07,3.08-3.09,1.03-1.03,2.06-2.05,3.09-3.08,1.03-1.02,2.06-2.05,3.09-3.08l.06-.06c1.93-1.93,3.86-3.86,5.79-5.77,1.49-1.49,3.05-3.11,4.29-5.07,1.63-2.59,2.68-5.38,3.1-8.29.42-2.93.28-5.86-.4-8.71Zm-39.17-33.36c.1,0,.21,0,.31,0-.44,0-.89,0-1.33.01.34-.01.68-.02,1.02-.02Zm-19.69,33.23s-.06.01-.09.01c-.04,0-.08-.03-.12-.04.07.03.14.05.21.03Zm-19.9-33.28c.23,0,.46.02.69.02-.35-.01-.69-.02-1.04-.02.12,0,.23,0,.35,0Zm19.8,69.52s-.06-.02-.1-.03c.03.01.07.03.1.03,0,0,0,0,0,0Zm0,36.14s-.08-.02-.12-.03c.04.02.09.03.13.03,0,0,0,0,0,0Z"/>
  <g>
    <g>
      <path className="cls-1" d="m223.51,159.08l-5.7,29.03c-.36,1.81-2.92,1.86-3.35.07l-6.98-29.17c-.18-.77-.87-1.32-1.67-1.32h-14.68c-.8,0-1.49.55-1.67,1.32l-6.9,29.3c-.42,1.8-2.99,1.75-3.35-.06l-5.77-29.18c-.16-.8-.86-1.38-1.68-1.38h-12.78c-1.13,0-1.95,1.08-1.65,2.17l13.67,50.17c.2.75.88,1.26,1.65,1.26h15.41c.79,0,1.47-.53,1.66-1.3l6.73-26.74c.44-1.74,2.91-1.73,3.33.01l6.5,26.72c.19.77.88,1.31,1.67,1.31h15.49c.77,0,1.45-.52,1.66-1.27l13.57-50.17c.29-1.09-.53-2.16-1.66-2.16h-11.82c-.82,0-1.53.58-1.68,1.38Z"/>
      <path className="cls-1" d="m242.6,159.21v50.57c0,.84.68,1.51,1.51,1.51h13.4c.84,0,1.51-.68,1.51-1.51v-50.57c0-.84-.68-1.51-1.51-1.51h-13.4c-.84,0-1.51.68-1.51,1.51Z"/>
      <path className="cls-1" d="m311.91,163.22c-3.75-4.07-8.76-6.1-15.04-6.1-3.53,0-6.68.68-9.51,2.06-1.6.78-3,1.72-4.23,2.82-.96.86-2.48.13-2.48-1.16v-1.15c0-1.11-.9-2.01-2.01-2.01h-12.91c-.84,0-1.51.68-1.51,1.51v50.57c0,.84.68,1.51,1.51,1.51h13.41c.84,0,1.51-.68,1.51-1.51v-27.59c0-3.58.92-6.37,2.77-8.36,1.86-1.98,4.36-2.97,7.49-2.97s5.64,1,7.49,2.97c1.86,1.99,2.79,4.78,2.79,8.36v27.59c0,.84.68,1.51,1.51,1.51h13.31c.84,0,1.51-.68,1.51-1.51v-29.79c0-7.11-1.88-12.7-5.62-16.76Z"/>
      <path className="cls-1" d="m348.16,197.37c-1.79,0-3.07-.36-3.84-1.07-.77-.7-1.15-1.85-1.15-3.45v-20c0-.84.68-1.51,1.51-1.51h7.72c.84,0,1.51-.68,1.51-1.51v-10.62c0-.84-.68-1.51-1.51-1.51h-7.72c-.84,0-1.51-.68-1.51-1.51v-10.03c0-.84-.68-1.51-1.51-1.51h-13.41c-.84,0-1.51.68-1.51,1.51v10.03c0,.84-.68,1.51-1.51,1.51h-3.5c-.84,0-1.51.68-1.51,1.51v10.62c0,.84.68,1.51,1.51,1.51h3.5c.84,0,1.51.68,1.51,1.51v19.81c0,6.6,1.66,11.35,5,14.26,3.33,2.91,7.96,4.36,13.92,4.36h6.85c.84,0,1.51-.68,1.51-1.51v-10.89c0-.84-.68-1.51-1.51-1.51h-4.34Z"/>
      <path className="cls-1" d="m410.79,183.64c0-5.39-1.14-10.09-3.41-14.13-2.27-4.02-5.43-7.14-9.47-9.31-4.02-2.18-8.64-3.27-13.82-3.27s-10.02,1.12-14.13,3.37c-4.09,2.25-7.28,5.45-9.55,9.61-2.27,4.15-3.41,9.03-3.41,14.59s1.15,10.45,3.47,14.6c2.3,4.17,5.5,7.36,9.6,9.61s8.77,3.36,14.03,3.36c4.35,0,8.29-.8,11.8-2.4,3.53-1.59,6.45-3.8,8.8-6.63,1.88-2.26,3.29-4.76,4.24-7.48.34-.99-.39-2.03-1.43-2.03h-14.52c-.57,0-1.07.33-1.35.82-1.65,2.92-4.37,4.36-8.12,4.36-2.76,0-5.08-.88-6.97-2.63-1.54-1.43-2.53-3.38-2.98-5.85-.17-.93.55-1.8,1.5-1.8h34.07c.78,0,1.44-.59,1.51-1.36.1-1.18.16-2.32.16-3.43Zm-35.48-4.32c-.99,0-1.74-.95-1.47-1.9.59-2.04,1.62-3.68,3.09-4.92,1.89-1.61,4.21-2.4,6.97-2.4s5.29.84,7.21,2.5c1.51,1.31,2.42,2.97,2.74,5,.14.91-.59,1.72-1.51,1.72h-17.03Z"/>
      <path className="cls-1" d="m438.25,159.67c-1.69.99-3.22,2.2-4.58,3.63-.96,1-2.63.37-2.63-1.01v-3.08c0-.84-.68-1.51-1.51-1.51h-13.4c-.84,0-1.51.68-1.51,1.51v50.57c0,.84.68,1.51,1.51,1.51h13.4c.84,0,1.51-.68,1.51-1.51v-23.35c0-4.42,1.02-7.52,3.07-9.27,2.05-1.76,5.13-2.64,9.23-2.64h2.99c.84,0,1.51-.68,1.51-1.51v-14.3c0-.9-.78-1.58-1.68-1.51-2.86.23-5.51,1.06-7.92,2.48Z"/>
      <path className="cls-1" d="m493.43,186.85c-1.89-2.2-4.08-3.81-6.58-4.81-2.49-1-5.73-2-9.7-3.03-3.45-.77-6-1.54-7.63-2.3-1.63-.77-2.45-1.92-2.45-3.45,0-1.28.51-2.29,1.54-3.03,1.02-.74,2.49-1.11,4.41-1.11,3.48,0,5.9,1.33,7.32,3.88.09.16.13.34.17.52.2.96,1.01,1.66,1.97,1.66h11.86c.96,0,1.66-.88,1.49-1.82-.85-4.66-2.98-8.48-6.42-11.43-3.87-3.33-9.17-5-15.89-5-4.55,0-8.46.74-11.76,2.22-3.3,1.48-5.8,3.47-7.49,6-1.71,2.53-2.54,5.33-2.54,8.4,0,3.65.92,6.55,2.79,8.7,1.85,2.15,4.07,3.71,6.63,4.71,2.56,1,5.76,1.93,9.6,2.83,3.6.9,6.18,1.72,7.78,2.45,1.61.74,2.4,1.88,2.4,3.41,0,1.28-.55,2.32-1.68,3.13-1.12.8-2.7,1.19-4.75,1.19-2.25,0-4.14-.57-5.67-1.73-1.22-.91-2.01-2.04-2.38-3.4-.18-.65-.77-1.11-1.45-1.11h-13.27c-.94,0-1.66.86-1.5,1.79.48,2.75,1.59,5.28,3.33,7.58,2.12,2.79,4.99,4.98,8.64,6.57,3.65,1.61,7.81,2.4,12.48,2.4,4.36,0,8.19-.7,11.49-2.1s5.81-3.36,7.58-5.81c1.76-2.46,2.64-5.26,2.64-8.4-.06-3.71-1.04-6.68-2.93-8.89Z"/>
      <path className="cls-1" d="m538.53,159.21v1.84c0,1.32-1.58,2.02-2.53,1.11-1.16-1.11-2.51-2.08-4.05-2.91-2.84-1.55-6.16-2.32-9.94-2.32-4.42,0-8.42,1.12-12.01,3.37-3.58,2.25-6.41,5.45-8.5,9.61-2.08,4.15-3.11,8.99-3.11,14.5s1.04,10.35,3.11,14.54c2.09,4.19,4.92,7.44,8.5,9.7,3.6,2.27,7.56,3.41,11.91,3.41,3.78,0,7.09-.77,9.94-2.3,1.58-.85,2.96-1.85,4.16-2.99.95-.91,2.52-.19,2.52,1.12v1.89c0,.84.68,1.51,1.51,1.51h13.4c.84,0,1.51-.68,1.51-1.51v-50.57c0-.84-.68-1.51-1.51-1.51h-13.4c-.84,0-1.51.68-1.51,1.51Zm-3.41,35c-2.27,2.36-5.05,3.55-8.3,3.55s-6.04-1.21-8.32-3.61c-2.27-2.4-3.41-5.64-3.41-9.74s1.14-7.32,3.41-9.65c2.27-2.35,5.05-3.51,8.32-3.51s6.03,1.18,8.3,3.55c2.27,2.37,3.41,5.6,3.41,9.7s-1.14,7.34-3.41,9.71Z"/>
      <path className="cls-1" d="m580.11,157.69v-.47c0-2.81.64-4.78,1.92-5.86,1.07-.91,2.78-1.37,5.13-1.39.82,0,1.49-.68,1.49-1.51v-10.95c0-.83-.66-1.5-1.48-1.51-.36,0-.76-.01-1.21-.01-7.29,0-12.84,1.71-16.62,5.13-3.77,3.43-5.66,8.44-5.66,15.03v1.54h-4.44c-.84,0-1.51.68-1.51,1.51v10.62c0,.84.68,1.51,1.51,1.51h2.93c.84,0,1.51.68,1.51,1.51v36.92c0,.84.68,1.51,1.51,1.51h13.4c.84,0,1.51-.68,1.51-1.51v-36.92c0-.84.68-1.51,1.51-1.51h5.82c.84,0,1.51-.68,1.51-1.51v-10.62c0-.84-.68-1.51-1.51-1.51h-7.33Z"/>
      <path className="cls-1" d="m642.35,183.64c0-5.39-1.14-10.09-3.41-14.13-2.27-4.02-5.43-7.14-9.45-9.31-4.04-2.18-8.64-3.27-13.83-3.27s-10.02,1.12-14.12,3.37c-4.11,2.25-7.29,5.45-9.57,9.61-2.27,4.15-3.4,9.03-3.4,14.59s1.15,10.45,3.45,14.6c2.3,4.17,5.5,7.36,9.6,9.61,4.11,2.25,8.77,3.36,14.03,3.36,4.35,0,8.29-.8,11.81-2.4,3.51-1.59,6.44-3.8,8.79-6.63,1.88-2.26,3.29-4.76,4.24-7.48.34-.99-.39-2.03-1.43-2.03h-14.52c-.57,0-1.07.33-1.35.82-1.65,2.92-4.37,4.36-8.12,4.36-2.76,0-5.08-.88-6.97-2.63-1.54-1.43-2.53-3.38-2.98-5.85-.17-.93.55-1.8,1.5-1.8h34.07c.78,0,1.44-.6,1.51-1.37.1-1.17.15-2.31.15-3.42Zm-35.48-4.32c-.99,0-1.74-.95-1.47-1.9.59-2.04,1.62-3.68,3.09-4.92,1.89-1.61,4.22-2.4,6.97-2.4,2.89,0,5.29.84,7.21,2.5,1.51,1.31,2.43,2.97,2.75,5,.14.91-.59,1.73-1.51,1.73h-17.04Z"/>
    </g>
    <path className="cls-1" d="m241.58,146.63c-.07-.14-.13-.3-.17-.45-.87-3.88-.08-6.97,2.39-9.27,1.83-1.7,4.18-2.55,7.06-2.55s5.14.85,6.96,2.55c2.49,2.31,3.28,5.43,2.38,9.34-.04.16-.1.32-.18.46-2,3.61-5.05,5.42-9.16,5.42s-7.33-1.83-9.29-5.51Z"/>
  </g>
</svg>
